<svg width="12" height="7" viewBox="0 0 12 7" fill="none" xmlns="http://www.w3.org/2000/svg">
<path d="M10.7529 0.5C10.8194 0.5001 10.8836 0.526204 10.9307 0.573242C10.9777 0.620294 11.0038 0.684461 11.0039 0.750977C11.0039 0.815139 10.9785 0.876291 10.9346 0.922852L10.9287 0.929688L5.92871 5.92969V5.93066C5.90563 5.95381 5.87782 5.97177 5.84766 5.98438C5.81727 5.99699 5.78388 6.00391 5.75098 6.00391C5.71819 6.00386 5.68556 5.99695 5.65527 5.98438C5.62507 5.9718 5.59734 5.95381 5.57422 5.93066L0.573242 0.929688C0.526213 0.88258 0.500007 0.818522 0.5 0.751953C0.5 0.685387 0.526224 0.62133 0.573242 0.574219C0.620293 0.527167 0.684444 0.501062 0.750977 0.500977C0.817556 0.500977 0.881597 0.527184 0.928711 0.574219L5.75195 5.39746L6.10547 5.04395L10.5752 0.573242C10.6223 0.526334 10.6864 0.5 10.7529 0.5Z" fill="black" stroke="black"/>
</svg>
